<svg xmlns="http://www.w3.org/2000/svg" viewBox="0 0 294.65 296.26"><defs><style>.cls-1{fill:#fff;}</style></defs><g id="Layer_2" data-name="Layer 2"><g id="Layer_1-2" data-name="Layer 1"><path class="cls-1" d="M220.52,231.76l-3,6.62,6.08,0Zm5.72,12.33-1.78-3.73-7.88,0-1.77,3.75h-2.26l8-16.83,7.95,16.83ZM207,230.25h-4.1v5.58H207a2.61,2.61,0,0,0,2.95-2.81C209.92,231.54,209.13,230.25,207,230.25Zm.23,7.72h-4.33v6.12h-2v-16h6.37a4.95,4.95,0,0,1,0,9.88Zm-10.42,1.57c0,3.58-3,4.91-6,4.91a8.86,8.86,0,0,1-5.47-1.66V240.2a8.25,8.25,0,0,0,5.49,2.23c2.55,0,4.26-1.38,4.26-2.68,0-4.37-10.13-1-10.13-7.63,0-3.1,2.94-4.41,5.65-4.41a7.83,7.83,0,0,1,5,1.42l-.07,2.5a7.45,7.45,0,0,0-5.13-1.85c-1.13,0-3.58.5-3.58,2.36C186.71,236.69,196.78,233.43,196.78,239.54Zm-24-1.16a4.19,4.19,0,0,1-2.07,2.07,2.63,2.63,0,0,1-2.25,0,5.19,5.19,0,0,1-1.53,2.54,5.5,5.5,0,0,1-3.76,1.46H163a5.44,5.44,0,0,1-3.8-1.66A5.34,5.34,0,0,1,157.7,239a5.25,5.25,0,0,1,1.7-3.73,6.17,6.17,0,0,1,1-.72,3.91,3.91,0,0,1-1.29-2.95,4.08,4.08,0,0,1,4.26-3.83,4.27,4.27,0,0,1,2.88,1.22,3.89,3.89,0,0,1,1.13,2.72h-1.69a2.16,2.16,0,0,0-.65-1.55,2.63,2.63,0,0,0-1.71-.75h-.1a2.4,2.4,0,0,0-2.43,2.23,2.29,2.29,0,0,0,1.63,2.21,8.91,8.91,0,0,1,.92,0h0v1.84h-.23a3.47,3.47,0,0,0-2.56,5.89,3.6,3.6,0,0,0,2.52,1.11,3.64,3.64,0,0,0,2.54-.94,3.56,3.56,0,0,0,1.13-2.28c-1-.65-1.78-1-2.41-.75a2.56,2.56,0,0,0-1.13,1.2l-1.37-.61s0,0,0,0a3.26,3.26,0,0,1,3.81-2c1.3.27,3,2.21,4.54,1.78.92-.25,1.42-1.58,1.61-2.07l1.37.54A6.44,6.44,0,0,1,172.78,238.38Zm-36.91,5.71v-16h2v14h7.86v2Zm-4.28-2v2H120.65v-16h10.94v2H122.7v4.64H130v2h-7.3v5.4Zm-20.84-12v14h-2.07v-14H103v-2h13.33v2ZM92.4,229.8a6.28,6.28,0,1,0,6.28,6.28A6.24,6.24,0,0,0,92.4,229.8Zm0,14.65a8.37,8.37,0,1,1,8.17-8.34A8.24,8.24,0,0,1,92.4,244.45Zm-14.25-.36V237H69.8v7.06H67.72v-16H69.8v6.8h8.35v-6.8h2v16ZM290.7,197.78V172.71h3.95v25.07Zm-26.14,0V187.21H251.28v10.57h-4V172.71h4v10.55h13.28V172.71h4v25.07ZM222.07,176.7a8.12,8.12,0,0,0-3-.54,8.46,8.46,0,0,0-6.3,2.62,9.44,9.44,0,0,0,0,13,8.46,8.46,0,0,0,6.3,2.62,8.32,8.32,0,0,0,3-.52,9.81,9.81,0,0,0,2.56-1.53l2.51,3.07a12.75,12.75,0,0,1-3.65,2.14,12.67,12.67,0,0,1-13.49-3A13.3,13.3,0,0,1,210,176a12.24,12.24,0,0,1,9.1-3.81,12.5,12.5,0,0,1,4.39.79,13.34,13.34,0,0,1,3.65,2.17l-2.51,3.06A9.24,9.24,0,0,0,222.07,176.7Zm-44.48,5.57-3.07,7.18h6.13Zm6.6,15.51-2-4.63H173l-2,4.63h-4.28l10.9-25.6,10.91,25.6Zm-41.61-18.59a8.33,8.33,0,0,0-6.07-2.53h-2.77v17.16h2.77a8.56,8.56,0,0,0,6.07-14.63Zm2.8,14.9a12.12,12.12,0,0,1-8.87,3.69h-6.73V172.71h6.73a12.52,12.52,0,0,1,8.87,21.38Zm-54-12.46v16.15h-4V172.43L105,189.11v-16.4h4v25.6Zm-34.06.64-3.07,7.18h6.13Zm6.61,15.51-2-4.63H52.65l-2,4.63H46.4l10.89-25.6,10.91,25.6Zm-40.66,0V184.61l-9.63,13.75L4,184.61v13.17H0V172.09l13.61,19.39L27.2,172.09v25.69Z"></path><polygon class="cls-1" points="86.11 122.87 105.34 134.22 89.58 57.31 140.7 76.54 63.6 19.04 86.11 122.87"></polygon><polygon class="cls-1" points="124.57 107.07 204.63 91.03 213.21 76.63 124.57 107.07"></polygon><polygon class="cls-1" points="118.52 104.4 231.78 47.27 221.51 65.98 118.52 104.4"></polygon><polygon class="cls-1" points="113.03 101.72 240.65 33.58 257.67 0 113.03 101.72"></polygon><polygon class="cls-1" points="104.75 275.71 108.09 282.48 115.55 283.56 110.15 288.83 111.43 296.26 104.75 292.75 98.07 296.26 99.35 288.83 93.94 283.56 101.41 282.48 104.75 275.71"></polygon><polygon class="cls-1" points="133.14 275.71 136.48 282.48 143.94 283.56 138.54 288.83 139.81 296.26 133.14 292.75 126.46 296.26 127.73 288.83 122.33 283.56 129.8 282.48 133.14 275.71"></polygon><polygon class="cls-1" points="161.52 275.71 164.86 282.48 172.32 283.56 166.92 288.83 168.2 296.26 161.52 292.75 154.85 296.26 156.12 288.83 150.72 283.56 158.18 282.48 161.52 275.71"></polygon><polygon class="cls-1" points="189.91 275.71 193.25 282.48 200.71 283.56 195.31 288.83 196.58 296.26 189.91 292.75 183.23 296.26 184.51 288.83 179.1 283.56 186.57 282.48 189.91 275.71"></polygon></g></g></svg>